<svg xmlns="http://www.w3.org/2000/svg" width="1920" height="1080" viewBox="0 0 1920 1080" role="img" aria-label="Dark AI media mosaic">
  <defs>
    <linearGradient id="bg" x1="0" y1="0" x2="1" y2="1">
      <stop offset="0" stop-color="#090713"/>
      <stop offset="0.45" stop-color="#12102a"/>
      <stop offset="1" stop-color="#030208"/>
    </linearGradient>
    <linearGradient id="purple" x1="0" y1="0" x2="1" y2="1">
      <stop offset="0" stop-color="#a855f7"/>
      <stop offset="1" stop-color="#5d7cff"/>
    </linearGradient>
    <filter id="soft" x="-20%" y="-20%" width="140%" height="140%">
      <feGaussianBlur stdDeviation="18"/>
    </filter>
    <clipPath id="round"><rect width="260" height="180" rx="24"/></clipPath>
  </defs>
  <rect width="1920" height="1080" fill="url(#bg)"/>
  <circle cx="960" cy="320" r="360" fill="#a855f7" opacity=".18" filter="url(#soft)"/>
  <circle cx="1480" cy="240" r="260" fill="#47d7ff" opacity=".12" filter="url(#soft)"/>
  <g transform="translate(-80 -40) rotate(-8 960 540)" opacity=".92">
    <g transform="translate(120 70)" clip-path="url(#round)"><rect width="260" height="180" fill="#17132a"/><circle cx="70" cy="52" r="44" fill="#5d7cff"/><path d="M0 180 96 96l68 56 52-34 44 62Z" fill="#f59e0b" opacity=".72"/></g>
    <g transform="translate(430 30)" clip-path="url(#round)"><rect width="260" height="180" fill="#0f172a"/><circle cx="190" cy="70" r="54" fill="#a855f7"/><path d="M58 150c40-86 94-86 154 0Z" fill="#47d7ff" opacity=".7"/></g>
    <g transform="translate(740 85)" clip-path="url(#round)"><rect width="260" height="180" fill="#171717"/><path d="M90 20h70v150H90z" fill="#f5f5f5"/><circle cx="125" cy="62" r="48" fill="#e5e7eb"/><path d="M94 62h96M120 18v164M80 108h100" stroke="#111827" stroke-width="10" opacity=".7"/></g>
    <g transform="translate(1050 20)" clip-path="url(#round)"><rect width="260" height="180" fill="#101827"/><circle cx="134" cy="86" r="74" fill="#9ca3af"/><circle cx="104" cy="70" r="18" fill="#111827"/><circle cx="158" cy="78" r="17" fill="#111827"/><path d="M72 134c50-24 92-16 126 6" stroke="#f9fafb" stroke-width="12" opacity=".35"/></g>
    <g transform="translate(1360 70)" clip-path="url(#round)"><rect width="260" height="180" fill="#311827"/><path d="M0 150 86 42l86 108 46-60 42 90Z" fill="#f97316"/><path d="M0 180h260v-38c-80 24-172 20-260 0Z" fill="#fed7aa" opacity=".55"/></g>
    <g transform="translate(1660 30)" clip-path="url(#round)"><rect width="260" height="180" fill="#172554"/><path d="M40 130c42-58 94-76 154-36 28 18 44 30 66 24v62H40Z" fill="#38bdf8" opacity=".78"/></g>
    <g transform="translate(270 300)" clip-path="url(#round)"><rect width="260" height="180" fill="#09090b"/><circle cx="80" cy="58" r="24" fill="#f472b6"/><circle cx="132" cy="70" r="25" fill="#fb7185"/><circle cx="186" cy="52" r="24" fill="#f43f5e"/><path d="M0 180 110 92l150 88Z" fill="#fde68a" opacity=".75"/></g>
    <g transform="translate(580 270)" clip-path="url(#round)"><rect width="260" height="180" fill="#18181b"/><path d="M30 140h210v30H30z" fill="#a855f7"/><circle cx="74" cy="78" r="48" fill="#e879f9"/><circle cx="172" cy="82" r="52" fill="#38bdf8"/></g>
    <g transform="translate(890 325)" clip-path="url(#round)"><rect width="260" height="180" fill="#10151f"/><circle cx="42" cy="52" r="24" fill="#facc15"/><g fill="#60a5fa"><circle cx="96" cy="122" r="28"/><circle cx="138" cy="112" r="28"/><circle cx="180" cy="128" r="28"/><circle cx="222" cy="116" r="28"/></g></g>
    <g transform="translate(1200 280)" clip-path="url(#round)"><rect width="260" height="180" fill="#0f172a"/><path d="M38 128c50-90 110-90 180 0" fill="#22d3ee" opacity=".64"/><path d="M0 180h260v-48c-84 14-172 18-260 0Z" fill="#f8fafc" opacity=".3"/></g>
    <g transform="translate(1510 310)" clip-path="url(#round)"><rect width="260" height="180" fill="#1e1b4b"/><circle cx="58" cy="76" r="30" fill="#ef4444"/><circle cx="112" cy="54" r="30" fill="#f59e0b"/><circle cx="168" cy="86" r="30" fill="#10b981"/><circle cx="216" cy="60" r="30" fill="#38bdf8"/></g>
    <g transform="translate(90 560)" clip-path="url(#round)"><rect width="260" height="180" fill="#111827"/><rect x="32" y="38" width="44" height="132" rx="12" fill="#8b5cf6"/><rect x="92" y="70" width="44" height="100" rx="12" fill="#22d3ee"/><rect x="152" y="18" width="44" height="152" rx="12" fill="#f59e0b"/></g>
    <g transform="translate(400 520)" clip-path="url(#round)"><rect width="260" height="180" fill="#0b1220"/><path d="M42 140c52-84 138-104 218 4v36H42Z" fill="#93c5fd"/><circle cx="74" cy="50" r="28" fill="#fde68a"/></g>
    <g transform="translate(710 580)" clip-path="url(#round)"><rect width="260" height="180" fill="#111827"/><rect x="40" y="42" width="180" height="106" rx="18" fill="#020617" stroke="#8b5cf6" stroke-width="4"/><path d="M94 90h72M94 116h42" stroke="#a78bfa" stroke-width="10" stroke-linecap="round"/></g>
    <g transform="translate(1020 540)" clip-path="url(#round)"><rect width="260" height="180" fill="#1f2937"/><path d="M0 180 74 90l60 46 80-82 46 126Z" fill="#34d399" opacity=".72"/></g>
    <g transform="translate(1330 590)" clip-path="url(#round)"><rect width="260" height="180" fill="#111827"/><circle cx="130" cy="90" r="64" fill="#f4f4f5"/><circle cx="104" cy="84" r="12" fill="#18181b"/><circle cx="156" cy="84" r="12" fill="#18181b"/><path d="M106 120c28 18 48 18 68 0" stroke="#18181b" stroke-width="8" fill="none" stroke-linecap="round"/></g>
    <g transform="translate(1640 550)" clip-path="url(#round)"><rect width="260" height="180" fill="#0f172a"/><path d="M24 140c56-92 120-108 212 0" fill="#7c3aed" opacity=".8"/><path d="M0 180h260v-36c-72 16-162 18-260 0Z" fill="#c4b5fd" opacity=".35"/></g>
  </g>
  <rect width="1920" height="1080" fill="#05040a" opacity=".25"/>
</svg>
