<svg xmlns="http://www.w3.org/2000/svg" width="1920" height="1700" viewBox="0 0 1920 1700" role="img" aria-label="Cinematic AI video stage">
  <defs>
    <linearGradient id="sky" x1="0" y1="0" x2="1" y2="1">
      <stop offset="0" stop-color="#071022"/>
      <stop offset=".38" stop-color="#13143e"/>
      <stop offset=".72" stop-color="#2b1451"/>
      <stop offset="1" stop-color="#05040a"/>
    </linearGradient>
    <linearGradient id="street" x1="0" y1="0" x2="0" y2="1">
      <stop offset="0" stop-color="#161827"/>
      <stop offset="1" stop-color="#02030a"/>
    </linearGradient>
    <radialGradient id="lamp" cx="50%" cy="50%" r="50%">
      <stop offset="0" stop-color="#e9f7ff"/>
      <stop offset=".18" stop-color="#76d8ff" stop-opacity=".88"/>
      <stop offset="1" stop-color="#76d8ff" stop-opacity="0"/>
    </radialGradient>
    <filter id="blur">
      <feGaussianBlur stdDeviation="18"/>
    </filter>
  </defs>
  <rect width="1920" height="1700" fill="url(#sky)"/>
  <circle cx="440" cy="330" r="260" fill="#5d7cff" opacity=".28" filter="url(#blur)"/>
  <circle cx="1420" cy="240" r="310" fill="#a855f7" opacity=".24" filter="url(#blur)"/>
  <circle cx="1080" cy="520" r="420" fill="#47d7ff" opacity=".08" filter="url(#blur)"/>

  <g opacity=".86">
    <rect x="110" y="220" width="270" height="710" rx="16" fill="#070914"/>
    <rect x="430" y="130" width="340" height="820" rx="16" fill="#0a0c1a"/>
    <rect x="820" y="210" width="260" height="760" rx="16" fill="#070914"/>
    <rect x="1135" y="160" width="360" height="850" rx="16" fill="#090a18"/>
    <rect x="1530" y="260" width="280" height="760" rx="16" fill="#060712"/>
    <g fill="#5d7cff" opacity=".25">
      <rect x="480" y="220" width="54" height="72" rx="8"/>
      <rect x="575" y="220" width="54" height="72" rx="8"/>
      <rect x="670" y="220" width="54" height="72" rx="8"/>
      <rect x="1190" y="270" width="64" height="84" rx="8"/>
      <rect x="1290" y="270" width="64" height="84" rx="8"/>
      <rect x="1390" y="270" width="64" height="84" rx="8"/>
    </g>
    <g fill="#47d7ff" opacity=".18">
      <rect x="175" y="330" width="54" height="72" rx="8"/>
      <rect x="270" y="330" width="54" height="72" rx="8"/>
      <rect x="870" y="330" width="54" height="72" rx="8"/>
      <rect x="965" y="330" width="54" height="72" rx="8"/>
      <rect x="1590" y="410" width="54" height="72" rx="8"/>
      <rect x="1690" y="410" width="54" height="72" rx="8"/>
    </g>
  </g>

  <rect y="980" width="1920" height="720" fill="url(#street)"/>
  <path d="M0 1690 760 980h420l740 710Z" fill="#070816"/>
  <path d="M820 980 610 1700M1100 980l230 720" stroke="#5d7cff" stroke-opacity=".28" stroke-width="5"/>
  <path d="M0 1280c300-60 560-78 830-62 450 28 780 98 1090 32v450H0Z" fill="#02030a" opacity=".72"/>

  <g opacity=".95">
    <circle cx="1090" cy="650" r="280" fill="url(#lamp)"/>
    <rect x="1084" y="630" width="12" height="530" rx="6" fill="#dff7ff" opacity=".8"/>
    <ellipse cx="1090" cy="1185" rx="240" ry="52" fill="#47d7ff" opacity=".18" filter="url(#blur)"/>
  </g>

  <g transform="translate(760 780)">
    <path d="M130 140c40-88 180-88 220 0l30 220H100z" fill="#111827"/>
    <circle cx="240" cy="70" r="72" fill="#d8e8ff"/>
    <rect x="180" y="126" width="120" height="260" rx="58" fill="#f6f2ff"/>
    <path d="M142 420c70 38 198 38 268 0v70H142z" fill="#101018"/>
    <circle cx="216" cy="60" r="10" fill="#111827"/>
    <circle cx="270" cy="60" r="10" fill="#111827"/>
    <path d="M210 96c34 22 66 20 92 0" fill="none" stroke="#111827" stroke-width="7" stroke-linecap="round"/>
  </g>

  <g opacity=".55">
    <path d="M120 1180c220 44 388 54 520 30M1320 1190c140 24 312 18 500-22" stroke="#ffffff" stroke-width="4" stroke-linecap="round"/>
    <path d="M120 1420c340-72 640-76 900-20 280 60 520 54 800-30" stroke="#76d8ff" stroke-opacity=".28" stroke-width="5" stroke-linecap="round"/>
  </g>

  <rect width="1920" height="1700" fill="none" stroke="#ffffff" stroke-opacity=".18" stroke-width="2"/>
</svg>
